<svg width="32" height="43" viewBox="0 0 32 43" fill="none" xmlns="http://www.w3.org/2000/svg">
  <path d="M16 0C7.16421 0 0 7.16421 0 16C0 24.8357 13.3335 42.6664 16 42.6664C18.6667 42.6664 32 24.8357 32 16C32 7.16421 24.8358 0 16 0Z" fill="#2480C5"/>
  <circle cx="16" cy="16" r="10" fill="white"/>
  <path fill-rule="evenodd" clip-rule="evenodd" d="M8.72606 13.2104L8.40483 13.7446L8.25191 14.7763L8.3144 15.3505L8.87018 16.4418L11.0735 17.7222L13.4123 18.6533L14.1745 18.9811L14.633 19.0801L15.2935 19.7362L15.7221 20.1882L15.9003 20.2903L16.1802 20.2396L16.5098 19.9629L16.9683 19.4352L17.4 18.9811L17.807 18.9558L20.7813 17.7714L23.0994 16.4218L23.29 16.2064L23.6931 15.3505L23.7181 15.158V14.3989L23.6931 14.1631L23.4334 13.4249L22.9934 13.0135L15.5478 12.0322L8.72606 13.2104Z" fill="#FEFEFE"/>
  <path fill-rule="evenodd" clip-rule="evenodd" d="M15.824 10.1937H16.1373C19.3914 10.3442 21.905 11.2348 23.2902 13.2359C21.6884 13.8949 20.2059 14.5294 18.9932 15.6372C18.396 16.1816 17.9463 16.7985 17.4807 17.4654C17.2726 17.7591 17.0315 18.0698 16.7855 18.439C16.6081 18.703 16.319 19.3514 15.993 19.3404C15.6924 19.3332 15.3963 18.703 15.2264 18.439C14.9892 18.0654 14.7349 17.7591 14.5311 17.4654C14.0695 16.8033 13.5956 16.1431 13.0196 15.637C11.7857 14.5373 10.3155 13.8949 8.72607 13.2102C10.1237 11.2473 12.6033 10.3497 15.824 10.1939V10.1937Z" fill="#3E68B0"/>
  <path fill-rule="evenodd" clip-rule="evenodd" d="M8.60396 13.4249H8.65368C10.2937 14.075 11.7472 14.7305 12.9723 15.8493C13.84 16.6475 14.5093 17.635 15.2007 18.6535C15.3578 18.8805 15.7005 19.5347 15.9729 19.5564C16.2642 19.5762 16.6277 18.9432 16.8108 18.6786C17.4933 17.6757 18.1542 16.6136 19.04 15.8253C20.2814 14.7219 21.756 14.0332 23.4334 13.4249C23.543 13.6433 23.6455 13.8733 23.6931 14.163C21.9844 14.701 20.4759 15.283 19.1844 16.2995C18.2515 17.0332 17.5743 17.9483 16.8108 18.9138C16.5987 19.1782 16.2937 19.7399 15.9729 19.723C15.6755 19.7072 15.3366 19.0992 15.1549 18.868C14.4301 17.9366 13.7349 16.9998 12.8024 16.2739C11.5056 15.2669 10.0271 14.7083 8.31441 14.163C8.37513 13.8781 8.44686 13.6145 8.60396 13.4249" fill="#3E68B0"/>
  <path fill-rule="evenodd" clip-rule="evenodd" d="M8.31441 14.3989C11.4466 15.1452 13.5694 16.7986 15.2007 19.1029C15.3749 19.3467 15.7054 19.9551 15.9927 19.9595C16.2937 19.9672 16.6251 19.3628 16.8108 19.1032C17.5052 18.1421 18.2818 17.251 19.1844 16.5128C20.4552 15.477 21.9597 14.8926 23.7177 14.3989C23.7767 14.6376 23.7564 14.9109 23.7177 15.1579C22.0442 15.6398 20.6114 16.203 19.2557 17.0636C18.6326 17.4581 18.112 18.0407 17.5782 18.5571C17.3358 18.7929 17.0774 19.0433 16.8108 19.3667C16.6339 19.5758 16.2436 20.1254 15.9927 20.1254C15.7472 20.1254 15.3538 19.5511 15.1795 19.3406C14.9089 19.0171 14.6502 18.7751 14.4121 18.5322C13.892 18.0074 13.3446 17.4363 12.7303 17.0378C11.382 16.1601 9.91265 15.6609 8.26777 15.1368C8.29417 14.9021 8.21364 14.5575 8.31441 14.3989" fill="#3E68B0"/>
  <path fill-rule="evenodd" clip-rule="evenodd" d="M8.31441 15.3507C11.2772 15.9725 13.4893 17.5789 15.2007 19.5298C15.4004 19.7577 15.7388 20.2898 15.9927 20.2942C16.2524 20.2942 16.6378 19.7533 16.8367 19.5298C18.5529 17.5954 20.6673 15.976 23.6931 15.3507C23.5787 15.6521 23.4502 15.9472 23.29 16.2066C20.637 16.8737 18.3998 17.9989 16.7646 19.7445C16.5397 19.9831 16.2937 20.411 15.9927 20.411C15.7221 20.411 15.4216 19.9511 15.2262 19.7448C13.5905 18.0455 11.4169 16.84 8.72607 16.2066C8.56062 15.952 8.43389 15.6521 8.31419 15.3507" fill="#3E68B0"/>
  <mask id="mask0_4_87" style="mask-type:alpha" maskUnits="userSpaceOnUse" x="8" y="10" width="16" height="14">
    <path d="M8 23.62H24V10H8V23.62Z" fill="white"/>
  </mask>
  <g mask="url(#mask0_4_87)">
    <path fill-rule="evenodd" clip-rule="evenodd" d="M8.72607 13.2104L8.40484 13.7448L8.25214 14.7758L8.31419 15.3505L8.87041 16.4418L11.0737 17.7217L13.4121 18.6535L14.1747 18.9807L14.6332 19.0801L15.2933 19.7365L15.7223 20.1884L15.9005 20.2898L16.18 20.2392L16.51 19.9631L16.9681 19.435L17.4002 18.9807L17.8073 18.9558L20.7815 17.771L23.0992 16.4218L23.2902 16.2064L23.6928 15.3505L23.7179 15.158V14.3989L23.6928 14.1631L23.4337 13.4249L22.9932 13.0135L15.5476 12.0322L8.72607 13.2104Z" fill="#FEFEFE"/>
    <path fill-rule="evenodd" clip-rule="evenodd" d="M8.72607 13.2104L8.40484 13.7448L8.25214 14.7758L8.31419 15.3505L8.87041 16.4418L11.0737 17.7217L13.4121 18.6535L14.1747 18.9807L14.6332 19.0801L15.2933 19.7365L15.7223 20.1884L15.9005 20.2898L16.18 20.2392L16.51 19.9631L16.9681 19.435L17.4002 18.9807L17.8073 18.9558L20.7815 17.771L23.0992 16.4218L23.2902 16.2064L23.6928 15.3505L23.7179 15.158V14.3989L23.6928 14.1631L23.4337 13.4249L22.9932 13.0135L15.5476 12.0322L8.72607 13.2104Z" stroke="#FEFEFE" stroke-width="1.759"/>
    <path fill-rule="evenodd" clip-rule="evenodd" d="M15.824 10.1937H16.1373C19.3914 10.3442 21.905 11.2348 23.2902 13.2359C21.6884 13.8949 20.2059 14.5294 18.9932 15.6372C18.396 16.1816 17.9463 16.7985 17.4807 17.4654C17.2726 17.7591 17.0315 18.0698 16.7855 18.439C16.6081 18.703 16.319 19.3514 15.993 19.3404C15.6924 19.3332 15.3963 18.703 15.2264 18.439C14.9892 18.0654 14.7349 17.7591 14.5311 17.4654C14.0695 16.8033 13.5956 16.1431 13.0196 15.637C11.7857 14.5373 10.3155 13.8949 8.72607 13.2102C10.1237 11.2473 12.6033 10.3497 15.824 10.1939" fill="#FEFEFE"/>
    <path fill-rule="evenodd" clip-rule="evenodd" d="M15.824 10.1937H16.1373C19.3914 10.3442 21.905 11.2348 23.2902 13.2359C21.6884 13.8949 20.2059 14.5294 18.9932 15.6372C18.396 16.1816 17.9463 16.7985 17.4807 17.4654C17.2726 17.7591 17.0315 18.0698 16.7855 18.439C16.6081 18.703 16.319 19.3514 15.993 19.3404C15.6924 19.3332 15.3963 18.703 15.2264 18.439C14.9892 18.0654 14.7349 17.7591 14.5311 17.4654C14.0695 16.8033 13.5956 16.1431 13.0196 15.637C11.7857 14.5373 10.3155 13.8949 8.72607 13.2102C10.1237 11.2473 12.6033 10.3497 15.824 10.1939V10.1937Z" stroke="#FEFEFE" stroke-width="1.759"/>
    <path fill-rule="evenodd" clip-rule="evenodd" d="M8.60396 13.4249H8.65368C10.2937 14.075 11.7472 14.7305 12.9723 15.8493C13.84 16.6475 14.5093 17.635 15.2007 18.6535C15.3578 18.8805 15.7005 19.5347 15.9729 19.5564C16.2642 19.5762 16.6277 18.9432 16.8108 18.6786C17.4933 17.6757 18.1542 16.6136 19.04 15.8253C20.2814 14.7219 21.756 14.0332 23.4334 13.4249C23.543 13.6433 23.6455 13.8733 23.6931 14.163C21.9844 14.701 20.4759 15.283 19.1844 16.2995C18.2515 17.0332 17.5743 17.9483 16.8108 18.9138C16.5987 19.1782 16.2937 19.7399 15.9729 19.723C15.6755 19.7072 15.3366 19.0992 15.1549 18.868C14.4301 17.9366 13.7349 16.9998 12.8024 16.2739C11.5056 15.2669 10.0271 14.7083 8.31441 14.163C8.37513 13.8781 8.44686 13.6145 8.60396 13.4249" fill="#FEFEFE"/>
    <path fill-rule="evenodd" clip-rule="evenodd" d="M8.60396 13.4249H8.65368C10.2937 14.075 11.7472 14.7305 12.9723 15.8493C13.84 16.6475 14.5093 17.635 15.2007 18.6535C15.3578 18.8805 15.7005 19.5347 15.9729 19.5564C16.2642 19.5762 16.6277 18.9432 16.8108 18.6786C17.4933 17.6757 18.1542 16.6136 19.04 15.8253C20.2814 14.7219 21.756 14.0332 23.4334 13.4249C23.543 13.6433 23.6455 13.8733 23.6931 14.163C21.9844 14.701 20.4759 15.283 19.1844 16.2995C18.2515 17.0332 17.5743 17.9483 16.8108 18.9138C16.5987 19.1782 16.2937 19.7399 15.9729 19.723C15.6755 19.7072 15.3366 19.0992 15.1549 18.868C14.4301 17.9366 13.7349 16.9998 12.8024 16.2739C11.5056 15.2669 10.0271 14.7083 8.31441 14.163C8.37513 13.8781 8.44686 13.6145 8.60396 13.4249V13.4249Z" stroke="#FEFEFE" stroke-width="1.759"/>
    <path fill-rule="evenodd" clip-rule="evenodd" d="M8.31441 14.3989C11.4466 15.1452 13.5694 16.7986 15.2007 19.1029C15.3749 19.3467 15.7054 19.9551 15.9927 19.9595C16.2937 19.9672 16.6251 19.3628 16.8108 19.1032C17.5052 18.1421 18.2818 17.251 19.1844 16.5128C20.4552 15.477 21.9597 14.8926 23.7177 14.3989C23.7767 14.6376 23.7564 14.9109 23.7177 15.1579C22.0442 15.6398 20.6114 16.203 19.2557 17.0636C18.6326 17.4581 18.112 18.0407 17.5782 18.5571C17.3358 18.7929 17.0774 19.0433 16.8108 19.3667C16.6339 19.5758 16.2436 20.1254 15.9927 20.1254C15.7472 20.1254 15.3538 19.5511 15.1795 19.3406C14.9089 19.0171 14.6502 18.7751 14.4121 18.5322C13.892 18.0074 13.3446 17.4363 12.7303 17.0378C11.382 16.1601 9.91265 15.6609 8.26777 15.1368C8.29417 14.9021 8.21364 14.5575 8.31441 14.3989" fill="#FEFEFE"/>
    <path fill-rule="evenodd" clip-rule="evenodd" d="M8.31441 14.3989C11.4466 15.1452 13.5694 16.7986 15.2007 19.1029C15.3749 19.3467 15.7054 19.9551 15.9927 19.9595C16.2937 19.9672 16.6251 19.3628 16.8108 19.1032C17.5052 18.1421 18.2818 17.251 19.1844 16.5128C20.4552 15.477 21.9597 14.8926 23.7177 14.3989C23.7767 14.6376 23.7564 14.9109 23.7177 15.1579C22.0442 15.6398 20.6114 16.203 19.2557 17.0636C18.6326 17.4581 18.112 18.0407 17.5782 18.5571C17.3358 18.7929 17.0774 19.0433 16.8108 19.3667C16.6339 19.5758 16.2436 20.1254 15.9927 20.1254C15.7472 20.1254 15.3538 19.5511 15.1795 19.3406C14.9089 19.0171 14.6502 18.7751 14.4121 18.5322C13.892 18.0074 13.3446 17.4363 12.7303 17.0378C11.382 16.1601 9.91265 15.6609 8.26777 15.1368C8.29417 14.9021 8.21364 14.5575 8.31441 14.3989V14.3989Z" stroke="#FEFEFE" stroke-width="1.759"/>
    <path fill-rule="evenodd" clip-rule="evenodd" d="M8.31441 15.3507C11.2772 15.9725 13.4893 17.5789 15.2007 19.5298C15.4004 19.7577 15.7388 20.2898 15.9927 20.2942C16.2524 20.2942 16.6378 19.7533 16.8367 19.5298C18.5529 17.5954 20.6673 15.976 23.6931 15.3507C23.5787 15.6521 23.4502 15.9472 23.29 16.2066C20.637 16.8737 18.3998 17.9989 16.7646 19.7445C16.5397 19.9831 16.2937 20.411 15.9927 20.411C15.7221 20.411 15.4216 19.9511 15.2262 19.7448C13.5905 18.0455 11.4169 16.84 8.72607 16.2066C8.56062 15.952 8.43389 15.6521 8.31419 15.3507" fill="#FEFEFE"/>
    <path fill-rule="evenodd" clip-rule="evenodd" d="M8.31441 15.3507C11.2772 15.9725 13.4893 17.5789 15.2007 19.5298C15.4004 19.7577 15.7388 20.2898 15.9927 20.2942C16.2524 20.2942 16.6378 19.7533 16.8367 19.5298C18.5529 17.5954 20.6673 15.976 23.6931 15.3507C23.5787 15.6521 23.4502 15.9472 23.29 16.2066C20.637 16.8737 18.3998 17.9989 16.7646 19.7445C16.5397 19.9831 16.2937 20.411 15.9927 20.411C15.7221 20.411 15.4216 19.9511 15.2262 19.7448C13.5905 18.0455 11.4169 16.84 8.72607 16.2066C8.56062 15.952 8.43389 15.6521 8.31419 15.3507H8.31441Z" stroke="#FEFEFE" stroke-width="1.759"/>
    <path fill-rule="evenodd" clip-rule="evenodd" d="M8.87018 16.4415C8.86578 16.4215 8.87942 16.4215 8.89175 16.4215C11.0484 16.9038 12.8909 17.8268 14.2422 19.0305C11.8704 18.7412 10.0904 17.8684 8.87018 16.4415" fill="#FEFEFE"/>
    <path fill-rule="evenodd" clip-rule="evenodd" d="M8.87018 16.4415C8.86578 16.4215 8.87942 16.4215 8.89175 16.4215C11.0484 16.9038 12.8909 17.8268 14.2422 19.0305C11.8704 18.7412 10.0904 17.8684 8.87018 16.4415V16.4415Z" stroke="#FEFEFE" stroke-width="1.759"/>
    <path fill-rule="evenodd" clip-rule="evenodd" d="M23.0992 16.4215C23.13 16.5218 23.0143 16.6103 22.9514 16.6809C21.8279 17.9782 19.9252 18.7333 17.7949 19.0307C17.7483 18.9718 17.9085 18.8842 17.985 18.8211C18.5866 18.3181 19.3193 17.8556 20.0951 17.4875C21.0183 17.0547 22.015 16.6103 23.0992 16.4215" fill="#FEFEFE"/>
    <path fill-rule="evenodd" clip-rule="evenodd" d="M23.0992 16.4215C23.13 16.5218 23.0143 16.6103 22.9514 16.6809C21.8279 17.9782 19.9252 18.7333 17.7949 19.0307C17.7483 18.9718 17.9085 18.8842 17.985 18.8211C18.5866 18.3181 19.3193 17.8556 20.0951 17.4875C21.0183 17.0547 22.015 16.6103 23.0992 16.4215V16.4215Z" stroke="#FEFEFE" stroke-width="1.759"/>
    <path fill-rule="evenodd" clip-rule="evenodd" d="M8.72607 13.2104L8.40484 13.7448L8.25214 14.7758L8.31419 15.3505L8.87041 16.4418L11.0737 17.7217L13.4121 18.6535L14.1747 18.9807L14.6332 19.0801L15.2933 19.7365L15.7223 20.1884L15.9005 20.2898L16.18 20.2392L16.51 19.9631L16.9681 19.435L17.4002 18.9807L17.8073 18.9558L20.7815 17.771L23.0992 16.4218L23.2902 16.2064L23.6928 15.3505L23.7179 15.158V14.3989L23.6928 14.1631L23.4337 13.4249L22.9932 13.0135L15.5476 12.0322L8.72607 13.2104Z" fill="#FEFEFE"/>
    <path fill-rule="evenodd" clip-rule="evenodd" d="M15.824 10.1937H16.1373C19.3914 10.3442 21.905 11.2348 23.2902 13.2359C21.6884 13.8949 20.2059 14.5294 18.9932 15.6372C18.396 16.1816 17.9463 16.7985 17.4807 17.4654C17.2726 17.7591 17.0315 18.0698 16.7855 18.439C16.6081 18.703 16.319 19.3514 15.993 19.3404C15.6924 19.3332 15.3963 18.703 15.2264 18.439C14.9892 18.0654 14.7349 17.7591 14.5311 17.4654C14.0695 16.8033 13.5956 16.1431 13.0196 15.637C11.7857 14.5373 10.3155 13.8949 8.72607 13.2102C10.1237 11.2473 12.6033 10.3497 15.824 10.1939" fill="#2480C5"/>
    <path fill-rule="evenodd" clip-rule="evenodd" d="M8.60396 13.4249H8.65368C10.2937 14.075 11.7472 14.7305 12.9723 15.8493C13.84 16.6475 14.5093 17.635 15.2007 18.6535C15.3578 18.8805 15.7005 19.5347 15.9729 19.5564C16.2642 19.5762 16.6277 18.9432 16.8108 18.6786C17.4933 17.6757 18.1542 16.6136 19.04 15.8253C20.2814 14.7219 21.756 14.0332 23.4334 13.4249C23.543 13.6433 23.6455 13.8733 23.6931 14.163C21.9844 14.701 20.4759 15.283 19.1844 16.2995C18.2515 17.0332 17.5743 17.9483 16.8108 18.9138C16.5987 19.1782 16.2937 19.7399 15.9729 19.723C15.6755 19.7072 15.3366 19.0992 15.1549 18.868C14.4301 17.9366 13.7349 16.9998 12.8024 16.2739C11.5056 15.2669 10.0271 14.7083 8.31441 14.163C8.37513 13.8781 8.44686 13.6145 8.60396 13.4249" fill="#2480C5"/>
    <path fill-rule="evenodd" clip-rule="evenodd" d="M8.31441 14.3989C11.4466 15.1452 13.5694 16.7986 15.2007 19.1029C15.3749 19.3467 15.7054 19.9551 15.9927 19.9595C16.2937 19.9672 16.6251 19.3628 16.8108 19.1032C17.5052 18.1421 18.2818 17.251 19.1844 16.5128C20.4552 15.477 21.9597 14.8926 23.7177 14.3989C23.7767 14.6376 23.7564 14.9109 23.7177 15.1579C22.0442 15.6398 20.6114 16.203 19.2557 17.0636C18.6326 17.4581 18.112 18.0407 17.5782 18.5571C17.3358 18.7929 17.0774 19.0433 16.8108 19.3667C16.6339 19.5758 16.2436 20.1254 15.9927 20.1254C15.7472 20.1254 15.3538 19.5511 15.1795 19.3406C14.9089 19.0171 14.6502 18.7751 14.4121 18.5322C13.892 18.0074 13.3446 17.4363 12.7303 17.0378C11.382 16.1601 9.91265 15.6609 8.26777 15.1368C8.29417 14.9021 8.21364 14.5575 8.31441 14.3989" fill="#2480C5"/>
    <path fill-rule="evenodd" clip-rule="evenodd" d="M8.31441 15.3507C11.2772 15.9725 13.4893 17.5789 15.2007 19.5298C15.4004 19.7577 15.7388 20.2898 15.9927 20.2942C16.2524 20.2942 16.6378 19.7533 16.8367 19.5298C18.5529 17.5954 20.6673 15.976 23.6931 15.3507C23.5787 15.6521 23.4502 15.9472 23.29 16.2066C20.637 16.8737 18.3998 17.9989 16.7646 19.7445C16.5397 19.9831 16.2937 20.411 15.9927 20.411C15.7221 20.411 15.4216 19.9511 15.2262 19.7448C13.5905 18.0455 11.4169 16.84 8.72607 16.2066C8.56062 15.952 8.43389 15.6521 8.31419 15.3507" fill="#2480C5"/>
    <path fill-rule="evenodd" clip-rule="evenodd" d="M8.87018 16.4415C8.86578 16.4215 8.87942 16.4215 8.89175 16.4215C11.0484 16.9038 12.8909 17.8268 14.2422 19.0305C11.8704 18.7412 10.0904 17.8684 8.87018 16.4415ZM23.0992 16.4215C23.13 16.5218 23.0143 16.6103 22.9514 16.6809C21.8279 17.9782 19.9252 18.7333 17.7949 19.0307C17.7483 18.9718 17.9085 18.8842 17.985 18.8211C18.5866 18.3181 19.3192 17.8556 20.095 17.4875C21.0183 17.0547 22.015 16.6103 23.0992 16.4215Z" fill="#2480C5"/>
  </g>
</svg>
