<svg width="32" height="52" viewBox="0 0 32 52" fill="none" xmlns="http://www.w3.org/2000/svg">
  <path d="M16 0C7.1641 0 0 7.1625 0 16C0 18.475 0.5625 20.8219 1.5672 22.9125C1.6234 23.0313 16 51.2 16 51.2L30.2594 23.2625C31.3719 21.0844 32 18.6156 32 16C32 7.1625 24.8375 0 16 0Z" fill="#FCAF17"/>
  <path d="M27.8 15.45C27.8 21.9946 22.4946 27.3 15.95 27.3C9.40543 27.3 4.1 21.9946 4.1 15.45C4.1 8.90543 9.40543 3.6 15.95 3.6C22.4946 3.6 27.8 8.90543 27.8 15.45Z" fill="black"/>
  <path fill-rule="evenodd" clip-rule="evenodd" d="M18.57 20.6571C17.5944 20.8424 16.6073 20.955 15.612 20.955C14.3744 20.955 13.0218 20.7619 11.8951 20.2443C10.3135 19.5188 9.42566 18.2724 9.307 16.5527L9.3 16.4541L9.38816 16.4061C10.4898 15.81 11.3459 14.7945 11.61 13.5752C11.664 13.3258 11.6936 13.0711 11.6936 12.816C11.6936 12.2363 11.5305 11.683 11.1955 11.2048L11.1276 11.1074L11.2046 11.0166C12.0644 10.0089 13.1483 9.23085 14.3703 8.69721C15.818 8.06456 17.395 7.8 18.9742 7.8C19.8451 7.8 20.6913 7.9027 21.5371 8.10811L21.6854 8.14426L21.6541 8.29051L21.6273 8.41375C21.5838 8.60039 21.5355 8.78586 21.4823 8.96999C21.4563 9.06201 21.4263 9.15485 21.4011 9.24646L21.3657 9.39148L21.2153 9.36149C20.6344 9.244 20.0877 9.13144 19.4916 9.13144C17.6715 9.13144 15.9716 9.76655 14.704 11.0631C13.6118 12.1805 12.9502 13.6976 12.93 15.2492C12.9139 16.4402 13.3296 17.636 14.2285 18.4618C15.2008 19.3553 16.4883 19.5903 17.7716 19.3458C17.8552 19.3298 17.9384 19.3138 18.0221 19.2965C18.3888 19.2242 18.744 19.1022 19.0776 18.9338L19.6811 16.3231L22.6 19.8659L18.0666 23L18.57 20.6571Z" fill="#FEFEFE"/>
</svg>
