<svg width="32" height="43" viewBox="0 0 32 43" fill="none" xmlns="http://www.w3.org/2000/svg">
  <path d="M16 0C7.16421 0 0 7.16421 0 16C0 24.8357 13.3335 42.6664 16 42.6664C18.6667 42.6664 32 24.8357 32 16C32 7.16421 24.8358 0 16 0Z" fill="#FCAF17"/>
  <circle cx="16" cy="16" r="10" fill="black"/>
  <path fill-rule="evenodd" clip-rule="evenodd" d="M17.6669 20.6337C16.8601 20.787 16.0436 20.8801 15.2204 20.8801C14.1969 20.8801 13.0782 20.7204 12.1463 20.2923C10.8382 19.6922 10.1039 18.6614 10.0058 17.2391L10 17.1576L10.0729 17.1178C10.984 16.6248 11.6921 15.7849 11.9105 14.7765C11.9551 14.5702 11.9797 14.3596 11.9797 14.1486C11.9797 13.6692 11.8447 13.2115 11.5677 12.816L11.5115 12.7355L11.5752 12.6604C12.2863 11.8269 13.1828 11.1834 14.1934 10.7421C15.3908 10.2188 16.6951 10 18.0012 10C18.7215 10 19.4214 10.0849 20.1209 10.2548L20.2436 10.2847L20.2177 10.4057L20.1955 10.5076C20.1596 10.662 20.1196 10.8154 20.0756 10.9677C20.0541 11.0438 20.0292 11.1206 20.0085 11.1963L19.9792 11.3163L19.8548 11.2915C19.3743 11.1943 18.9222 11.1012 18.4291 11.1012C16.9238 11.1012 15.5179 11.6265 14.4694 12.6988C13.5662 13.6229 13.0189 14.8777 13.0022 16.161C12.9889 17.146 13.3327 18.1351 14.0762 18.818C14.8804 19.557 15.9452 19.7514 17.0066 19.5492C17.0757 19.5359 17.1446 19.5227 17.2137 19.5084C17.5171 19.4486 17.8108 19.3477 18.0867 19.2084L18.5859 17.0492L21 19.9793L17.2505 22.5714L17.6669 20.6337Z" fill="#FEFEFE"/>
</svg>
