<svg width="32" height="43" viewBox="0 0 32 43" fill="none" xmlns="http://www.w3.org/2000/svg">
  <path d="M16 0C7.16421 0 0 7.16421 0 16C0 24.8357 13.3335 42.6664 16 42.6664C18.6667 42.6664 32 24.8357 32 16C32 7.16421 24.8358 0 16 0Z" fill="#FFCE01"/>
  <circle cx="16" cy="16" r="10" fill="white"/>
  <path d="M12.1599 11.033C10.6696 11.2843 9.39753 12.1641 8.67495 13.4445C7.67387 15.2197 7.7943 17.3563 8.98355 19.0294C9.90936 20.3333 11.5803 21.1188 13.1309 20.9853C13.8309 20.9225 14.689 20.6397 15.2535 20.294L15.6449 20.0505L15.2384 19.54C14.7717 18.943 14.3728 18.181 14.1922 17.5369L14.0642 17.0735L13.9062 17.2306C13.2363 17.8668 12.3104 17.8433 11.6631 17.1677C11.3846 16.8771 11.2943 16.7122 11.219 16.3744C11.061 15.6439 11.3319 14.984 11.9492 14.5756C12.6416 14.1121 13.6277 14.3164 14.1019 15.0233C14.2825 15.2825 14.3352 15.4789 14.418 16.2094C14.5384 17.1913 14.6588 17.6705 14.9298 18.236C15.8933 20.2234 18.0535 21.3388 20.1309 20.9067C22.4793 20.4197 24.1277 18.2046 23.9922 15.7146C23.917 14.4656 23.4578 13.3816 22.6148 12.4861C21.132 10.923 18.8589 10.5538 16.9771 11.575C16.3373 11.9206 16.3373 11.897 16.7739 12.4626C17.2481 13.0753 17.6395 13.8294 17.8051 14.4656L17.9331 14.9448L18.1363 14.7484C18.5728 14.3164 19.3933 14.1985 19.9427 14.497C20.4546 14.7641 20.8535 15.4239 20.8535 16.0052C20.8535 17.0185 19.7696 17.9061 18.8589 17.6469C18.0384 17.4113 17.7072 16.9399 17.6019 15.8952C17.4589 14.3321 17.09 13.468 16.1492 12.4861C15.6599 11.9677 15.4266 11.787 14.9072 11.5357C14.5535 11.355 14.1169 11.1822 13.9287 11.1351C13.4244 11.0094 12.5889 10.9623 12.1599 11.033ZM13.5975 12.4861C14.1545 12.6354 14.7115 12.981 15.0578 13.3659C15.5169 13.8922 15.8029 14.5599 16.0513 15.746C16.4201 17.4898 16.8793 18.2674 17.8126 18.7466C19.032 19.375 20.5976 18.998 21.4481 17.8826C21.8997 17.2856 22.0804 16.7122 22.0804 15.9109C22.0804 15.094 21.9073 14.5756 21.4255 13.9315C20.7782 13.0831 19.9954 12.6904 18.904 12.6825C18.3847 12.6825 18.2943 12.6668 18.4449 12.604C18.5503 12.5568 18.9718 12.5333 19.3857 12.549C20.0481 12.5725 20.1987 12.6118 20.6427 12.8318C22.0653 13.5466 22.7954 15.2118 22.389 16.8143C21.8621 18.9351 19.4987 20.082 17.6395 19.1315C17.0825 18.8409 16.4352 18.1496 16.1492 17.5212C15.9685 17.1128 15.8782 16.775 15.5545 15.3454C15.2234 13.8451 14.4556 13.0281 13.1836 12.8318C11.5051 12.5725 10.0373 13.6644 9.71366 15.4161C9.53301 16.3665 9.87173 17.427 10.5943 18.181C11.1137 18.7152 11.6932 19.0294 12.3707 19.1394C12.8298 19.2179 13.1309 19.1865 13.8535 19.0137C14.2223 18.9194 13.7857 19.1472 13.3717 19.2572C12.5965 19.4771 11.6481 19.3436 10.8954 18.9194C10.4287 18.6523 9.85667 18.0004 9.60828 17.4505C8.70505 15.4553 9.75882 13.091 11.8212 12.4861C12.2803 12.3526 13.1309 12.3526 13.5975 12.4861Z" fill="#555759"/>
</svg>
