<svg xmlns="http://www.w3.org/2000/svg" fill="none" width="23" height="30" viewBox="0 0 23 30">
  <path fill="#0B0B22" d="M11.1522 0C5.03107 0 0 5.38922 0 11.9461 0 21.9162 11.1522 30 11.1522 30s11.1522-8.7126 11.1522-18.0539C22.3883 5.38922 17.3572 0 11.1522 0z"/>
  <path fill="url(#paint0_linear)" d="M8.90279 17.8484c.07174-3.3673 7.06711-2.7551 3.47971-11.51783C9.47676 8.01424 7.2526 15.8969 8.90279 17.8484z"/>
  <path fill="url(#paint1_linear)" d="M7.57692 11.2285c.71747.3826 3.08518-1.95156 1.50669-4.78319-1.93718 1.49235-2.11655 3.44387-1.50669 4.78319z"/>
  <path fill="url(#paint2_linear)" d="M11.019 19.1112c.0359-2.1046 4.9147-1.1097 4.1972-6.8495-1.8654 2.5638-5.955 3.1378-4.1972 6.8495z"/>
  <path fill="url(#paint3_linear)" d="M12.9919 8.74142c0-2.02806-1.2197-3.78826-2.7264-4.43877-.1793-.07653-.3587-.15306-.50219-.19132 0 0 .35869 1.22449.35869 2.21938 0 3.97959-2.97747 4.32399-2.97747 8.15049 0 1.4923.71747 2.8316 1.75781 3.3673h.03587c-.07174-.2678-.10762-.4974-.10762-.7653-.03587-2.7933 4.16131-3.6352 4.16131-8.34178z"/>
  <path fill="url(#paint4_linear)" d="M14.3919 10.0424c-.1435-.19136-.287-.34442-.4305-.49748-.574 4.59178-4.12546 5.20408-4.12546 7.65308 0 .7653.50226 1.6071 1.18386 1.875-.0359-.0766-.0359-.1148-.0359-.1914v-.1913c0-1.5306 4.269-2.028 4.269-6.0459 0-.8801-.287-1.8367-.861-2.602z"/>
  <path fill="url(#paint5_linear)" d="M8.36431 5.67912c-.17936-.1148-.39461-.15306-.57397-.19133 0 0 .21524.38266.21524.84184 0 1.41581-1.25558 1.95152-1.25558 3.4056 0 .68877.35874 1.22447.82509 1.56887 0-.0765.03588-.1913.03588-.2679v-.0765c.28699-.99488 1.65019-2.10457 1.65019-3.67344.03587-.72704-.39461-1.33928-.89685-1.60714z"/>
  <path fill="#ED1C24" d="M8.75781 16.3178c.10762-.8035.78922-1.7984 1.47079-2.5255.8969-.9566 2.3677-2.5255 2.6906-4.55353-.1077 2.18113-1.722 4.01783-2.8699 5.20403-.50227.5358-.96862 1.2245-1.29149 1.875z"/>
  <path fill="url(#paint6_linear)" d="M10.9832 18.9577c-.3588-.6122.3946-1.3775 1.0762-1.875.6098-.4209 2.1524-1.1862 2.7981-2.7551-.6816 1.8368-2.3318 2.5638-3.0851 3.1378-.3229.2296-1.0045.8801-.7892 1.4923z"/>
  <path fill="url(#paint7_linear)" d="M7.57422 11.0754c0-.8418.78922-1.875 1.11208-2.33418.39461-.57398.50223-.95663.53811-1.14796-.10762.65051-.50223 1.30102-.89684 1.91326-.17937.30612-.6816.88008-.75335 1.56888z"/>
  <defs>
    <linearGradient id="paint0_linear" x1="8.35026" x2="13.406" y1="17.8267" y2="17.8267" gradientUnits="userSpaceOnUse">
      <stop stop-color="#CC171E"/>
      <stop offset=".5399" stop-color="#640000"/>
      <stop offset=".6624" stop-color="#650000"/>
      <stop offset=".7321" stop-color="#6B0000"/>
      <stop offset=".7884" stop-color="#750000"/>
      <stop offset=".8377" stop-color="#830000"/>
      <stop offset=".8824" stop-color="#95070A"/>
      <stop offset=".9237" stop-color="#AC1015"/>
      <stop offset=".9619" stop-color="#C8171D"/>
      <stop offset=".9977" stop-color="#E91C24"/>
      <stop offset="1" stop-color="#ED1C24"/>
    </linearGradient>
    <linearGradient id="paint1_linear" x1="7.25635" x2="9.60801" y1="11.2972" y2="11.2972" gradientUnits="userSpaceOnUse">
      <stop stop-color="#2376BC"/>
      <stop offset=".0425564" stop-color="#226FB4"/>
      <stop offset=".1054" stop-color="#2161A5"/>
      <stop offset=".1808" stop-color="#1F4C8D"/>
      <stop offset=".266" stop-color="#182D6C"/>
      <stop offset=".3582" stop-color="#090048"/>
      <stop offset=".3742" stop-color="#050042"/>
      <stop offset=".4448" stop-color="#080047"/>
      <stop offset=".5526" stop-color="#0E1053"/>
      <stop offset=".684" stop-color="#172A69"/>
      <stop offset=".8342" stop-color="#1E4A8B"/>
      <stop offset=".9982" stop-color="#2375BB"/>
      <stop offset="1" stop-color="#2376BC"/>
    </linearGradient>
    <linearGradient id="paint2_linear" x1="10.5915" x2="15.2999" y1="19.1256" y2="19.1256" gradientUnits="userSpaceOnUse">
      <stop stop-color="#008742"/>
      <stop offset=".2086" stop-color="#00602B"/>
      <stop offset=".2307" stop-color="#00652E"/>
      <stop offset=".3034" stop-color="#007437"/>
      <stop offset=".3756" stop-color="#007F3D"/>
      <stop offset=".4467" stop-color="#008541"/>
      <stop offset=".5153" stop-color="#008742"/>
      <stop offset=".7546" stop-color="#004F1F"/>
      <stop offset="1" stop-color="#008742"/>
    </linearGradient>
    <linearGradient id="paint3_linear" x1="7.2573" x2="15.7964" y1="23.3773" y2="21.8474" gradientUnits="userSpaceOnUse">
      <stop stop-color="#ED1C24"/>
      <stop offset=".6871" stop-color="#D32329"/>
      <stop offset=".7399" stop-color="#CE2228"/>
      <stop offset=".7983" stop-color="#C42026"/>
      <stop offset=".8595" stop-color="#B31D22"/>
      <stop offset=".9224" stop-color="#9D171B"/>
      <stop offset=".9863" stop-color="#810E10"/>
      <stop offset="1" stop-color="#7A0B0C"/>
    </linearGradient>
    <linearGradient id="paint4_linear" x1="7.25034" x2="16.2622" y1="23.7991" y2="22.9853" gradientUnits="userSpaceOnUse">
      <stop stop-color="#50B848"/>
      <stop offset=".1293" stop-color="#61BB46"/>
      <stop offset=".312" stop-color="#6EBE44"/>
      <stop offset=".5399" stop-color="#72BF44"/>
      <stop offset=".5891" stop-color="#69B742"/>
      <stop offset=".6694" stop-color="#54A63E"/>
      <stop offset=".7708" stop-color="#318C37"/>
      <stop offset=".8881" stop-color="#006A2A"/>
      <stop offset="1" stop-color="#004817"/>
    </linearGradient>
    <linearGradient id="paint5_linear" x1="8.01745" x2="11.9758" y1="13.3893" y2="11.6061" gradientUnits="userSpaceOnUse">
      <stop offset=".1104" stop-color="#00A2DD"/>
      <stop offset=".5153" stop-color="#0076C0"/>
      <stop offset=".6376" stop-color="#0078C1"/>
      <stop offset=".7515" stop-color="#007FC5"/>
      <stop offset=".8621" stop-color="#008ACD"/>
      <stop offset=".97" stop-color="#009CD9"/>
      <stop offset="1" stop-color="#00A2DD"/>
    </linearGradient>
    <linearGradient id="paint6_linear" x1="10.8782" x2="14.8607" y1="18.9672" y2="18.9672" gradientUnits="userSpaceOnUse">
      <stop stop-color="#50B848"/>
      <stop offset=".1293" stop-color="#61BB46"/>
      <stop offset=".312" stop-color="#6EBE44"/>
      <stop offset=".5399" stop-color="#72BF44"/>
      <stop offset=".5891" stop-color="#69B742"/>
      <stop offset=".6694" stop-color="#54A63E"/>
      <stop offset=".7708" stop-color="#318C37"/>
      <stop offset=".8881" stop-color="#006A2A"/>
      <stop offset="1" stop-color="#004817"/>
    </linearGradient>
    <linearGradient id="paint7_linear" x1="7.55621" x2="9.21913" y1="11.0937" y2="11.0937" gradientUnits="userSpaceOnUse">
      <stop offset=".1104" stop-color="#00A2DD"/>
      <stop offset=".5153" stop-color="#0076C0"/>
      <stop offset=".6376" stop-color="#0078C1"/>
      <stop offset=".7515" stop-color="#007FC5"/>
      <stop offset=".8621" stop-color="#008ACD"/>
      <stop offset=".97" stop-color="#009CD9"/>
      <stop offset="1" stop-color="#00A2DD"/>
    </linearGradient>
  </defs>
</svg>