<svg width="32" height="43" viewBox="0 0 32 43" fill="none" xmlns="http://www.w3.org/2000/svg">
  <path d="M16 0C7.16421 0 0 7.16421 0 16C0 24.8357 13.3335 42.6664 16 42.6664C18.6667 42.6664 32 24.8357 32 16C32 7.16421 24.8358 0 16 0Z" fill="#0B0B22"/>
  <path d="M13.0256 25.3067C13.1264 20.5741 22.9581 21.4345 17.9162 9.11902C13.8323 11.4853 10.7064 22.564 13.0256 25.3067Z" fill="url(#paint0_linear_4_41)"/>
  <path d="M11.1622 16.0027C12.1706 16.5404 15.4982 13.2599 13.2798 9.28021C10.5572 11.3776 10.3051 14.1204 11.1622 16.0027Z" fill="url(#paint1_linear_4_41)"/>
  <path d="M15.9998 27.0816C16.0503 24.1237 22.9072 25.522 21.8988 17.455C19.2771 21.0583 13.5294 21.865 15.9998 27.0816V27.0816Z" fill="url(#paint2_linear_4_41)"/>
  <path d="M18.7726 12.5073C18.7726 9.65701 17.0584 7.18315 14.9408 6.26889C14.6888 6.16133 14.4367 6.05377 14.235 6C14.235 6 14.7392 7.72095 14.7392 9.11921C14.7392 14.7123 10.5545 15.1963 10.5545 20.5743C10.5545 22.6716 11.5629 24.5539 13.025 25.3068H13.0754C12.9746 24.9304 12.9242 24.6078 12.9242 24.2312C12.8737 20.3054 18.7726 19.1222 18.7726 12.5073V12.5073Z" fill="url(#paint3_linear_4_41)"/>
  <path d="M20.7403 14.3358C20.5386 14.0669 20.3369 13.8518 20.1352 13.6367C19.3285 20.0901 14.3371 20.9507 14.3371 24.3926C14.3371 25.4682 15.043 26.6513 16.001 27.0278C15.9505 26.9202 15.9505 26.8665 15.9505 26.7588V26.49C15.9505 24.3388 21.9504 23.6397 21.9504 17.9928C21.9504 16.7559 21.547 15.4114 20.7403 14.3358V14.3358Z" fill="url(#paint4_linear_4_41)"/>
  <path d="M12.2688 8.20353C12.0167 8.04219 11.7142 7.98842 11.4621 7.93463C11.4621 7.93463 11.7646 8.47244 11.7646 9.11779C11.7646 11.1076 10 11.8605 10 13.9042C10 14.8722 10.5042 15.6251 11.1596 16.1091C11.1596 16.0016 11.21 15.8403 11.21 15.7326V15.6251C11.6134 14.2268 13.5293 12.6672 13.5293 10.4623C13.5797 9.44047 12.9747 8.58 12.2688 8.20353V8.20353Z" fill="url(#paint5_linear_4_41)"/>
  <path d="M12.8219 23.1555C12.9731 22.0262 13.9311 20.6279 14.889 19.606C16.1495 18.2616 18.2166 16.0566 18.6705 13.2063C18.5191 16.2718 16.2503 18.8531 14.637 20.5203C13.9311 21.2733 13.2756 22.2412 12.8219 23.1555V23.1555Z" fill="#ED1C24"/>
  <path d="M15.9495 26.8657C15.4453 26.0053 16.5041 24.9297 17.4621 24.2305C18.3191 23.639 20.4871 22.5634 21.3946 20.3584C20.4367 22.9399 18.1174 23.9617 17.0587 24.7684C16.6049 25.0911 15.6469 26.0053 15.9495 26.8657Z" fill="url(#paint6_linear_4_41)"/>
  <path d="M11.1584 15.7876C11.1584 14.6045 12.2676 13.1524 12.7214 12.5071C13.276 11.7004 13.4272 11.1626 13.4776 10.8937C13.3264 11.8079 12.7718 12.7222 12.2172 13.5827C11.9651 14.0129 11.2592 14.8196 11.1584 15.7876V15.7876Z" fill="url(#paint7_linear_4_41)"/>
  <defs>
    <linearGradient id="paint0_linear_4_41" x1="12.2491" y1="25.2762" x2="19.3546" y2="25.2762" gradientUnits="userSpaceOnUse">
      <stop stop-color="#CC171E"/>
      <stop offset="0.5399" stop-color="#640000"/>
      <stop offset="0.6624" stop-color="#650000"/>
      <stop offset="0.7321" stop-color="#6B0000"/>
      <stop offset="0.7884" stop-color="#750000"/>
      <stop offset="0.8377" stop-color="#830000"/>
      <stop offset="0.8824" stop-color="#95070A"/>
      <stop offset="0.9237" stop-color="#AC1015"/>
      <stop offset="0.9619" stop-color="#C8171D"/>
      <stop offset="0.9977" stop-color="#E91C24"/>
      <stop offset="1" stop-color="#ED1C24"/>
    </linearGradient>
    <linearGradient id="paint1_linear_4_41" x1="10.7116" y1="16.0993" x2="14.0168" y2="16.0993" gradientUnits="userSpaceOnUse">
      <stop stop-color="#2376BC"/>
      <stop offset="0.0425564" stop-color="#226FB4"/>
      <stop offset="0.1054" stop-color="#2161A5"/>
      <stop offset="0.1808" stop-color="#1F4C8D"/>
      <stop offset="0.266" stop-color="#182D6C"/>
      <stop offset="0.3582" stop-color="#090048"/>
      <stop offset="0.3742" stop-color="#050042"/>
      <stop offset="0.4448" stop-color="#080047"/>
      <stop offset="0.5526" stop-color="#0E1053"/>
      <stop offset="0.684" stop-color="#172A69"/>
      <stop offset="0.8342" stop-color="#1E4A8B"/>
      <stop offset="0.9982" stop-color="#2375BB"/>
      <stop offset="1" stop-color="#2376BC"/>
    </linearGradient>
    <linearGradient id="paint2_linear_4_41" x1="15.399" y1="27.1018" x2="22.0164" y2="27.1018" gradientUnits="userSpaceOnUse">
      <stop stop-color="#008742"/>
      <stop offset="0.2086" stop-color="#00602B"/>
      <stop offset="0.2307" stop-color="#00652E"/>
      <stop offset="0.3034" stop-color="#007437"/>
      <stop offset="0.3756" stop-color="#007F3D"/>
      <stop offset="0.4467" stop-color="#008541"/>
      <stop offset="0.5153" stop-color="#008742"/>
      <stop offset="0.7546" stop-color="#004F1F"/>
      <stop offset="1" stop-color="#008742"/>
    </linearGradient>
    <linearGradient id="paint3_linear_4_41" x1="10.713" y1="33.0772" x2="22.7142" y2="30.9271" gradientUnits="userSpaceOnUse">
      <stop stop-color="#ED1C24"/>
      <stop offset="0.6871" stop-color="#D32329"/>
      <stop offset="0.7399" stop-color="#CE2228"/>
      <stop offset="0.7983" stop-color="#C42026"/>
      <stop offset="0.8595" stop-color="#B31D22"/>
      <stop offset="0.9224" stop-color="#9D171B"/>
      <stop offset="0.9863" stop-color="#810E10"/>
      <stop offset="1" stop-color="#7A0B0C"/>
    </linearGradient>
    <linearGradient id="paint4_linear_4_41" x1="10.7032" y1="33.6701" x2="23.3689" y2="32.5264" gradientUnits="userSpaceOnUse">
      <stop stop-color="#50B848"/>
      <stop offset="0.1293" stop-color="#61BB46"/>
      <stop offset="0.312" stop-color="#6EBE44"/>
      <stop offset="0.5399" stop-color="#72BF44"/>
      <stop offset="0.5891" stop-color="#69B742"/>
      <stop offset="0.6694" stop-color="#54A63E"/>
      <stop offset="0.7708" stop-color="#318C37"/>
      <stop offset="0.8881" stop-color="#006A2A"/>
      <stop offset="1" stop-color="#004817"/>
    </linearGradient>
    <linearGradient id="paint5_linear_4_41" x1="11.7813" y1="19.0398" x2="17.3446" y2="16.5336" gradientUnits="userSpaceOnUse">
      <stop offset="0.1104" stop-color="#00A2DD"/>
      <stop offset="0.5153" stop-color="#0076C0"/>
      <stop offset="0.6376" stop-color="#0078C1"/>
      <stop offset="0.7515" stop-color="#007FC5"/>
      <stop offset="0.8621" stop-color="#008ACD"/>
      <stop offset="0.97" stop-color="#009CD9"/>
      <stop offset="1" stop-color="#00A2DD"/>
    </linearGradient>
    <linearGradient id="paint6_linear_4_41" x1="15.802" y1="26.8791" x2="21.3991" y2="26.8791" gradientUnits="userSpaceOnUse">
      <stop stop-color="#50B848"/>
      <stop offset="0.1293" stop-color="#61BB46"/>
      <stop offset="0.312" stop-color="#6EBE44"/>
      <stop offset="0.5399" stop-color="#72BF44"/>
      <stop offset="0.5891" stop-color="#69B742"/>
      <stop offset="0.6694" stop-color="#54A63E"/>
      <stop offset="0.7708" stop-color="#318C37"/>
      <stop offset="0.8881" stop-color="#006A2A"/>
      <stop offset="1" stop-color="#004817"/>
    </linearGradient>
    <linearGradient id="paint7_linear_4_41" x1="11.1331" y1="15.8134" x2="13.4702" y2="15.8134" gradientUnits="userSpaceOnUse">
      <stop offset="0.1104" stop-color="#00A2DD"/>
      <stop offset="0.5153" stop-color="#0076C0"/>
      <stop offset="0.6376" stop-color="#0078C1"/>
      <stop offset="0.7515" stop-color="#007FC5"/>
      <stop offset="0.8621" stop-color="#008ACD"/>
      <stop offset="0.97" stop-color="#009CD9"/>
      <stop offset="1" stop-color="#00A2DD"/>
    </linearGradient>
  </defs>
</svg>
