<svg width="32" height="43" viewBox="0 0 32 43" fill="none" xmlns="http://www.w3.org/2000/svg">
  <path d="M16 0C7.16421 0 0 7.16421 0 16C0 24.8357 13.3335 42.6664 16 42.6664C18.6667 42.6664 32 24.8357 32 16C32 7.16421 24.8358 0 16 0Z" fill="#52B04C"/>
  <path d="M26 16.0959C25.8158 19.9691 24.2764 23.0939 20.6715 24.814C18.2506 25.9694 15.6324 26.3502 12.9879 25.5754C9.96188 24.6827 8.01466 22.5951 6.75158 19.7853C4.71228 15.2424 6.83052 8.54622 13.0142 6.52428C15.9087 5.57894 18.6453 5.90718 21.2504 7.54839C24.0791 9.32093 25.4211 11.96 25.9605 15.1243C25.9736 15.203 25.9869 15.2818 25.9869 15.3474C26 15.5969 26 15.8464 26 16.0959ZM18.0006 24.8271C18.1585 24.814 18.448 24.8008 18.7243 24.7352C21.0267 24.2232 22.724 22.8971 23.9212 20.8882C24.0133 20.7438 23.9739 20.665 23.8817 20.5468C23.6186 20.2317 23.3292 19.9429 23.1318 19.6014C22.8292 19.0763 22.3818 18.8005 21.8161 18.6561C21.6846 18.6167 21.5661 18.5774 21.4346 18.5379C20.5399 18.2885 19.6321 18.0784 18.8032 17.6451C18.6585 17.5663 18.5664 17.6321 18.448 17.7239C16.8165 19.0763 14.9877 20.061 12.9221 20.56C12.7379 20.6124 12.6853 20.665 12.7774 20.8488C13.3168 21.9648 14.001 22.9627 14.9877 23.7505C15.8166 24.42 16.7771 24.814 18.0006 24.8271ZM18.0796 7.75847C16.1324 7.81099 14.4483 8.62499 13.1721 10.2531C13.0011 10.4632 12.9879 10.542 13.2905 10.6207C15.1193 11.0934 16.356 12.1832 16.8165 14.0738C17.0402 15.0061 17.5401 15.807 18.2901 16.4372C18.4743 16.5948 18.5927 16.6079 18.7769 16.4241C19.7636 15.4525 20.5925 14.3758 21.1977 13.1285C21.2504 13.0235 21.2767 12.9316 21.2899 12.8134C21.3819 11.6449 21.6451 10.5288 22.0793 9.43905C22.1713 9.20274 22.1187 9.08455 21.9346 8.95329C20.803 8.17858 19.5663 7.78473 18.0796 7.75847ZM12.7379 11.2247C12.6064 11.1853 12.5406 11.251 12.4879 11.3692C12.3827 11.6055 12.2774 11.8287 12.1854 12.065C11.2512 14.6253 11.4749 17.1725 12.2906 19.7196C12.3695 19.9822 12.5274 19.8903 12.6721 19.851C14.5799 19.3783 16.264 18.4986 17.777 17.2906C17.9348 17.1725 17.9348 17.0937 17.777 16.9755C17.2639 16.5554 16.8823 16.0564 16.5797 15.4788C16.2902 14.9404 16.1455 14.3627 15.9613 13.785C15.5403 12.4458 14.1325 11.3297 12.7379 11.2247ZM25.2764 16.1483C25.2764 14.8747 25.0659 13.9163 24.487 12.5246C24.1054 11.6186 23.6581 10.7389 23.0265 9.97737C22.9082 9.83297 22.816 9.7542 22.724 10.0168C21.5399 13.5093 21.8556 16.7654 24.237 19.7196C24.4212 19.9429 24.4738 19.8772 24.5659 19.6671C25.0527 18.5379 25.2764 17.3694 25.2764 16.1483ZM6.73843 16.2403C6.72527 18.1834 7.5936 19.4439 9.23819 19.9034C9.76453 20.0478 10.3171 20.1004 10.8565 20.0873C11.6196 20.0741 11.5933 20.0741 11.4091 19.352C11.2118 18.5774 10.9486 17.8552 10.4355 17.225C9.52768 16.0959 8.30407 15.4 7.05419 14.7566C6.86999 14.6647 6.86999 14.796 6.85684 14.901C6.7779 15.3474 6.72527 15.7938 6.73843 16.2403ZM7.75152 20.1004C8.64613 21.9254 9.93552 23.3828 11.7643 24.3281C13.0273 24.9846 14.3694 25.2472 15.7903 25.1816C14.8299 24.6958 14.0273 24.0262 13.3563 23.199C12.8037 22.5294 12.3695 21.781 12.0143 20.9932C11.9485 20.8357 11.8827 20.7438 11.6854 20.77C10.3039 20.9407 8.98827 20.7963 7.75152 20.1004ZM10.8433 16.5554C10.8565 16.4241 10.8696 16.3847 10.8696 16.3453C10.7644 14.6121 10.9749 12.9184 11.6854 11.3166C11.7643 11.1196 11.6985 11.0934 11.5275 11.0934C10.7513 11.0803 9.98816 11.1853 9.22504 11.356C8.09358 11.5923 7.47521 12.3013 7.18576 13.378C7.04103 13.9426 7.02787 13.9426 7.55415 14.192C7.60674 14.2183 7.6726 14.2445 7.72516 14.2839C8.86984 14.8747 9.93552 15.5313 10.8433 16.5554ZM8.40936 10.8308C8.47514 10.8308 8.51457 10.8308 8.54093 10.8177C9.59346 10.4369 10.6986 10.3187 11.8038 10.3844C12.067 10.3976 12.2117 10.3319 12.3564 10.1087C13.1853 8.86138 14.3167 7.98168 15.7246 7.44335C16.4613 7.18076 17.2112 7.04946 18.0796 7.01007C15.1851 6.16978 10.6986 7.40396 8.40936 10.8308ZM21.2372 14.6516C20.6715 15.4656 20.04 16.2271 19.3426 16.9099C19.2374 17.0149 19.29 17.0674 19.3953 17.1199C20.2636 17.5139 21.1846 17.7108 22.1582 17.9865C21.6714 16.8836 21.3819 15.7938 21.2372 14.6516Z" fill="white"/>
</svg>
