<svg width="41" height="56" viewBox="0 0 41 56" fill="none" xmlns="http://www.w3.org/2000/svg">
  <path d="M41 20.398C41 35.6965 20.5 55.0746 20.5 55.0746C20.5 55.0746 0 35.6965 0 20.398C0 9.1791 9.225 0 20.5 0C31.775 0 41 9.1791 41 20.398Z" fill="#52B04C"/>
  <path d="M33.6758 20.3269C33.4389 25.308 31.4592 29.3267 26.8231 31.5387C23.7098 33.0246 20.3427 33.5143 16.9418 32.518C13.0502 31.3699 10.546 28.6851 8.92164 25.0716C6.29902 19.2293 9.02316 10.6178 16.9756 8.0175C20.698 6.80176 24.2174 7.22389 27.5676 9.33455C31.2054 11.6141 32.9313 15.008 33.625 19.0774C33.6419 19.1787 33.6589 19.28 33.6589 19.3644C33.6758 19.6852 33.6758 20.0061 33.6758 20.3269ZM23.3883 31.5556C23.5914 31.5387 23.9636 31.5218 24.319 31.4374C27.28 30.7789 29.4627 29.0735 31.0024 26.49C31.1208 26.3043 31.0701 26.203 30.9516 26.051C30.6132 25.6457 30.241 25.2743 29.9872 24.8352C29.598 24.1598 29.0227 23.8052 28.2952 23.6195C28.126 23.5688 27.9737 23.5182 27.8045 23.4675C26.6539 23.1467 25.4864 22.8765 24.4205 22.3193C24.2344 22.218 24.1159 22.3025 23.9636 22.4206C21.8655 24.1598 19.5136 25.4262 16.8572 26.0679C16.6203 26.1354 16.5526 26.203 16.6711 26.4393C17.3648 27.8746 18.2446 29.1579 19.5136 30.171C20.5796 31.0321 21.8148 31.5387 23.3883 31.5556ZM23.4899 9.60472C20.9857 9.67226 18.8199 10.7191 17.1787 12.8129C16.9587 13.0831 16.9418 13.1844 17.3309 13.2857C19.6828 13.8936 21.2733 15.2951 21.8655 17.7265C22.1532 18.9254 22.7961 19.9554 23.7606 20.7659C23.9975 20.9685 24.1498 20.9854 24.3866 20.749C25.6556 19.4995 26.7216 18.1149 27.4999 16.5108C27.5676 16.3757 27.6015 16.2575 27.6184 16.1056C27.7368 14.6028 28.0752 13.1675 28.6336 11.766C28.752 11.4621 28.6843 11.3101 28.4475 11.1413C26.9923 10.145 25.4018 9.63849 23.4899 9.60472ZM16.6203 14.0624C16.4511 14.0118 16.3665 14.0962 16.2988 14.2482C16.1635 14.5521 16.0281 14.8392 15.9097 15.1431C14.7083 18.4357 14.996 21.7115 16.045 24.9872C16.1465 25.3249 16.3496 25.2067 16.5357 25.1561C18.9891 24.5482 21.1549 23.4169 23.1007 21.8634C23.3037 21.7115 23.3037 21.6102 23.1007 21.4582C22.4408 20.9179 21.9501 20.2762 21.561 19.5333C21.1887 18.841 21.0026 18.098 20.7657 17.3551C20.2243 15.6328 18.4138 14.1975 16.6203 14.0624ZM32.7452 20.3944C32.7452 18.7565 32.4745 17.5239 31.73 15.7341C31.2393 14.569 30.664 13.4377 29.8518 12.4583C29.6996 12.2726 29.5811 12.1713 29.4627 12.509C27.9399 17.0005 28.3459 21.188 31.4085 24.9872C31.6454 25.2743 31.7131 25.1898 31.8315 24.9197C32.4575 23.4675 32.7452 21.9647 32.7452 20.3944ZM8.90472 20.5126C8.8878 23.0116 10.0045 24.6326 12.1195 25.2236C12.7964 25.4093 13.507 25.4769 14.2007 25.46C15.1821 25.4431 15.1482 25.4431 14.9114 24.5144C14.6576 23.5182 14.3192 22.5895 13.6593 21.779C12.4918 20.3269 10.9182 19.432 9.3108 18.6046C9.07392 18.4864 9.07392 18.6552 9.057 18.7903C8.95548 19.3644 8.8878 19.9385 8.90472 20.5126ZM10.2076 25.4769C11.3581 27.8239 13.0163 29.6982 15.3682 30.9139C16.9925 31.7582 18.7184 32.0959 20.5458 32.0115C19.3106 31.3867 18.2785 30.5256 17.4155 29.4618C16.7049 28.6007 16.1465 27.6382 15.6897 26.6251C15.6051 26.4225 15.5205 26.3043 15.2667 26.338C13.4901 26.5575 11.7981 26.3718 10.2076 25.4769ZM14.1838 20.9179C14.2007 20.749 14.2176 20.6983 14.2176 20.6477C14.0823 18.4188 14.353 16.2406 15.2667 14.1806C15.3682 13.9273 15.2836 13.8936 15.0636 13.8936C14.0654 13.8767 13.084 14.0118 12.1026 14.2313C10.6475 14.5352 9.85225 15.447 9.48001 16.8316C9.29388 17.5577 9.27696 17.5577 9.95377 17.8785C10.0214 17.9123 10.1061 17.946 10.1737 17.9967C11.6458 18.7565 13.0163 19.6008 14.1838 20.9179ZM11.0536 13.5559C11.1382 13.5559 11.1889 13.5559 11.2228 13.539C12.5764 13.0493 13.9977 12.8973 15.419 12.9818C15.7574 12.9987 15.9435 12.9142 16.1296 12.6272C17.1956 11.0231 18.6507 9.89177 20.4612 9.19947C21.4087 8.86176 22.3731 8.69291 23.4899 8.64225C19.7674 7.5616 13.9977 9.14881 11.0536 13.5559ZM27.5507 18.4695C26.8231 19.5164 26.011 20.4957 25.1142 21.3738C24.9788 21.5088 25.0465 21.5764 25.1819 21.6439C26.2986 22.1505 27.483 22.4038 28.7351 22.7584C28.1091 21.34 27.7368 19.9385 27.5507 18.4695Z" fill="white"/>
</svg>
