<svg width="32" height="43" viewBox="0 0 32 43" fill="none" xmlns="http://www.w3.org/2000/svg">
  <path d="M16 0C7.16421 0 0 7.16421 0 16C0 24.8357 13.3335 42.6664 16 42.6664C18.6667 42.6664 32 24.8357 32 16C32 7.16421 24.8358 0 16 0Z" fill="#009345"/>
  <path d="M23.2888 10.0009C22.8275 9.99729 22.3729 10.1119 21.9685 10.3338C21.5641 10.5558 21.2233 10.8777 20.9786 11.2687C20.7339 11.6598 20.5935 12.1071 20.5708 12.5678C20.5481 13.0286 20.6439 13.4875 20.8489 13.9007L23.2788 18.8105L25.7187 13.9107C25.9233 13.4983 26.0191 13.0403 25.9968 12.5804C25.9746 12.1204 25.8351 11.6738 25.5916 11.283C25.3481 10.8922 25.0087 10.5702 24.6056 10.3475C24.2026 10.1249 23.7493 10.009 23.2888 10.0109V10.0009Z" fill="#8BC53F"/>
  <path d="M14.6092 21.7702L12.3993 26.23L6.27961 13.9006C6.12223 13.5822 6.02919 13.236 6.00584 12.8816C5.98249 12.5272 6.02928 12.1717 6.14353 11.8355C6.25779 11.4992 6.43725 11.1888 6.67166 10.922C6.90606 10.6553 7.1908 10.4373 7.50955 10.2808C8.15546 9.96206 8.90142 9.91256 9.58378 10.1431C10.2661 10.3737 10.8292 10.8655 11.1494 11.5107L14.6092 18.4704C14.8631 18.9833 14.9951 19.5479 14.9951 20.1203C14.9951 20.6926 14.8631 21.2572 14.6092 21.7702V21.7702ZM21.8989 21.7702L19.679 26.23L13.5593 13.9006C13.4019 13.5822 13.3088 13.236 13.2855 12.8816C13.2621 12.5272 13.3089 12.1717 13.4232 11.8355C13.5374 11.4992 13.7169 11.1888 13.9513 10.922C14.1857 10.6553 14.4704 10.4373 14.7892 10.2808C15.4351 9.96206 16.1811 9.91256 16.8634 10.1431C17.5458 10.3737 18.1088 10.8655 18.429 11.5107L21.8889 18.4704C22.1427 18.9833 22.2748 19.5479 22.2748 20.1203C22.2748 20.6926 22.1427 21.2572 21.8889 21.7702H21.8989Z" fill="white"/>
</svg>
