<svg xmlns="http://www.w3.org/2000/svg" viewBox="0 0 48 48" width="48" height="48" fill="none">
  <path
    d="M24 45a.92.92 0 01-.84-.54C18.68 34.44 8 33 8 21a16 16 0 1132 0c0 12-10.68 13.44-15.14 23.46a.95.95 0 01-.84.54"
    fill="#009345" />
  <path
    d="M31.29 14a2.7 2.7 0 00-2.44 3.9l2.43 4.91 2.44-4.9a2.7 2.7 0 00-2.43-3.9z"
    fill="#8BC53F"/>
  <path
    d="M22.61 25.77l-2.21 4.46-6.12-12.33a2.7 2.7 0 011.23-3.62 2.72 2.72 0 013.64 1.23l3.46 6.96a3.72 3.72 0 010 3.3zM29.9 25.77l-2.22 4.46-6.12-12.33a2.7 2.7 0 011.23-3.62 2.72 2.72 0 013.64 1.23l3.46 6.96a3.72 3.72 0 010 3.3z"
    fill="#fff"/>
</svg>
